<?xml version="1.0" encoding="UTF-8" standalone="no"?>
<!-- Created with Inkscape (http://www.inkscape.org/) -->

<svg
   xmlns:dc="http://purl.org/dc/elements/1.1/"
   xmlns:cc="http://creativecommons.org/ns#"
   xmlns:rdf="http://www.w3.org/1999/02/22-rdf-syntax-ns#"
   xmlns:svg="http://www.w3.org/2000/svg"
   xmlns="http://www.w3.org/2000/svg"
   xmlns:xlink="http://www.w3.org/1999/xlink"
   xmlns:sodipodi="http://sodipodi.sourceforge.net/DTD/sodipodi-0.dtd"
   xmlns:inkscape="http://www.inkscape.org/namespaces/inkscape"
   width="480"
   height="480"
   id="svg4193"
   sodipodi:version="0.32"
   inkscape:version="0.48.2 r9819"
   version="1.0"
   sodipodi:docname="openzelda-player.svg"
   inkscape:output_extension="org.inkscape.output.svg.inkscape">
  <defs
     id="defs4195">
    <linearGradient
       id="linearGradient3139">
      <stop
         style="stop-color:#000000;stop-opacity:1;"
         offset="0"
         id="stop3141" />
      <stop
         style="stop-color:#494947;stop-opacity:1;"
         offset="1"
         id="stop3143" />
    </linearGradient>
    <radialGradient
       inkscape:collect="always"
       xlink:href="#linearGradient3139"
       id="radialGradient3145"
       cx="25"
       cy="23"
       fx="25"
       fy="23"
       r="20.087999"
       gradientUnits="userSpaceOnUse"
       spreadMethod="reflect"
       gradientTransform="matrix(0.7457927,0,0,0.7621743,6.3551838,5.4699923)" />
    <linearGradient
       inkscape:collect="always"
       xlink:href="#linearGradient3139"
       id="linearGradient6072"
       x1="8.4057083"
       y1="23.157021"
       x2="11.744954"
       y2="23.157019"
       gradientUnits="userSpaceOnUse"
       gradientTransform="translate(0,-9.657692e-2)" />
    <linearGradient
       inkscape:collect="always"
       xlink:href="#linearGradient3139"
       id="linearGradient8020"
       gradientUnits="userSpaceOnUse"
       gradientTransform="translate(0,-9.657692e-2)"
       x1="8.4057083"
       y1="23.157021"
       x2="11.744954"
       y2="23.157019" />
    <linearGradient
       inkscape:collect="always"
       xlink:href="#linearGradient3139"
       id="linearGradient8028"
       gradientUnits="userSpaceOnUse"
       gradientTransform="translate(0,-9.657692e-2)"
       x1="8.4057083"
       y1="23.157021"
       x2="11.744954"
       y2="23.157019" />
    <linearGradient
       inkscape:collect="always"
       xlink:href="#linearGradient3139"
       id="linearGradient8036"
       gradientUnits="userSpaceOnUse"
       gradientTransform="translate(0,-9.657692e-2)"
       x1="8.4057083"
       y1="23.157021"
       x2="11.744954"
       y2="23.157019" />
    <linearGradient
       inkscape:collect="always"
       xlink:href="#linearGradient3139"
       id="linearGradient8044"
       gradientUnits="userSpaceOnUse"
       gradientTransform="translate(0,-9.657692e-2)"
       x1="8.4057083"
       y1="23.157021"
       x2="11.744954"
       y2="23.157019" />
  </defs>
  <sodipodi:namedview
     id="base"
     pagecolor="#ffffff"
     bordercolor="#666666"
     borderopacity="1.0"
     gridtolerance="10000"
     guidetolerance="10"
     objecttolerance="10"
     inkscape:pageopacity="0.0"
     inkscape:pageshadow="2"
     inkscape:zoom="1.0999251"
     inkscape:cx="23.999999"
     inkscape:cy="264.68912"
     inkscape:document-units="px"
     inkscape:current-layer="layer1"
     width="480px"
     height="480px"
     showgrid="false"
     inkscape:window-width="1920"
     inkscape:window-height="1028"
     inkscape:window-x="1015"
     inkscape:window-y="-9"
     inkscape:window-maximized="1" />
  <metadata
     id="metadata4198">
    <rdf:RDF>
      <cc:Work
         rdf:about="">
        <dc:format>image/svg+xml</dc:format>
        <dc:type
           rdf:resource="http://purl.org/dc/dcmitype/StillImage" />
      </cc:Work>
    </rdf:RDF>
  </metadata>
  <g
     inkscape:label="Layer 1"
     inkscape:groupmode="layer"
     id="layer1">
    <path
       style="fill:#ffcc00;fill-opacity:1;stroke:none;display:inline"
       d="M 240.05225,47.415139 19.247103,428.86362 l 220.805147,0 -112.17895,-189.41268 224.22157,0 z m 112.04262,192.035911 -112.04262,189.43957 223.35005,0 z"
       id="path3767"
       inkscape:connector-curvature="0"
       sodipodi:nodetypes="cccccccccc" />
    <g
       id="g3054"
       transform="translate(-6.3640695,-97.279347)">
      <path
         sodipodi:nodetypes="cccccccccccccccccccccccccccccccscccccccccccccccccccccccccccccccccccccccccccccccccccccccccc"
         inkscape:connector-curvature="0"
         d="m 401.44849,417.84996 7.77262,-6.04869 -3.41222,-18.02154 -12.41728,0 -5.16138,17.43883 9.17444,6.1476 c 1.06583,0.64333 1.81138,1.64107 2.35835,2.64608 0.39767,-0.8094 0.81251,-1.51949 1.68547,-2.16228 z M 211.65733,347.0477 c 1.40832,-1.76599 4.18218,-2.84625 7.16419,-2.51385 l -7.05219,-16.16729 -9.42306,0 0,28.81228 1.41528,0 7.89578,-10.13114 z m 24.18461,22.83895 0,-11.28778 c -2.53628,1.95145 -6.87455,2.57909 -10.54828,-0.43181 l 0,12.07095 c 3.786,-3.42468 8.67944,-1.93677 10.54828,-0.35136 z m -24.51588,38.41631 5.88974,-17.33418 c -2.67694,-0.0585 -4.34826,-1.18333 -5.67803,-2.70693 l -7.56025,-9.35675 -1.694,0 0,29.39786 z m 121.88295,-75.57617 0,72.47369 c 9.75003,-6.13933 13.38166,-22.09688 12.87852,-37.2152 -0.42795,-12.85883 -4.08649,-30.09236 -12.87852,-35.25849 z m -167.94248,79.29716 0,-86.48387 -5.29637,-4.35416 -80.156432,113.46966 55.901942,0 z m -139.729116,35.22759 95.259696,-136.51197 -53.108074,0 -35.537393,26.79646 c -5.301554,4.33142 -14.392789,0.25911 -12.439443,-6.76842 l 18.962214,-39.71637 c 1.257837,-2.07064 3.197424,-3.2663 5.793722,-3.61912 l 126.683764,0 c 4.31895,0.60912 8.08735,4.83835 5.79899,9.60178 l -7.89207,11.24613 62.43426,0 c 0.49459,0.0921 0.95694,0.0864 1.39238,0 l 43.87124,0.006 c 6.40986,0.48995 10.32334,8.08584 3.37896,12.47742 l -5.57488,3.77165 0,81.78282 0.22145,0 11.4517,-32.36462 c 1.45493,-4.05671 7.51377,-6.54946 12.16831,-2.97876 7.5e-4,-7.54236 7.5e-4,-15.08477 7.5e-4,-22.62713 l 7.6e-4,-22.42363 -7.7628,-5.45699 c -5.12364,-3.6204 -3.90334,-11.31586 4.30952,-12.18076 l 37.70714,0 c 29.05696,4.98943 43.07602,25.82299 44.98082,47.52842 l 8.86661,-29.93346 -8.54679,-5.81745 c -5.21248,-4.6351 -1.72158,-11.18669 4.45274,-11.77751 l 32.05049,0 c 2.82299,0.62785 5.18484,1.80725 6.1266,4.6849 l 28.09343,98.14149 12.4019,6.15645 c 5.09261,3.2799 4.06111,10.97497 -3.57182,12.2393 l -51.19262,0 c -3.33776,-0.21525 -5.32359,-1.76446 -6.59564,-4.01804 -1.36261,2.3416 -3.46477,3.74521 -6.45832,4.01804 l -39.32946,0 c -2.00177,-0.12142 -3.98326,-0.72547 -5.90191,-2.82559 -3.80409,1.392 -8.11332,2.51993 -13.99571,2.82559 l -101.61103,0 c -0.13213,-0.0591 -0.68156,-0.0675 -0.81497,0 l -58.70819,0 c -3.66102,8.26169 -7.39991,16.49343 -11.02155,24.77026 -1.23192,2.04552 -3.06819,3.59879 -6.5885,3.78021 l -123.979491,0 c -6.110607,-0.34899 -9.43929,-6.10955 -5.777777,-10.80109 l 9.1e-5,-0.006 z M 182.28602,288.71086 c 115.16809,160.64523 57.58405,80.32262 0,0 z"
         style="fill:#e9920b;fill-opacity:1;display:inline;enable-background:new"
         id="path2873" />
      <path
         inkscape:connector-curvature="0"
         d="m 367.65963,403.70485 c 0,0 -2.49553,8.52315 -2.49553,8.52315 0,0 -6.01566,3.56411 -6.01566,3.56411 3.6333,-3.15112 7.04631,-9.1008 8.51119,-12.08726 z m -208.95109,49.28461 11.6492,-26.37773 60.68231,0 c 0.73704,-0.24137 1.45331,-0.36088 2.08771,0 l 99.9393,0 c 7.51158,-0.37917 13.02622,-2.04873 17.46841,-4.41134 -0.78298,2.98467 1.94092,4.34964 3.79491,4.41134 l 38.21374,0 c 4.89631,-0.37478 4.83037,-4.73867 2.65789,-6.14603 l -11.20305,-7.5199 6.56181,-22.11511 18.3914,0 4.24319,22.68218 -9.32556,7.20777 c -2.17818,2.18422 -0.98137,5.37113 2.42379,5.89109 l 50.41127,0 c 4.62273,-0.38441 4.59615,-4.85045 2.23692,-6.27212 l -13.45966,-6.68456 -28.23418,-99.06103 c -0.4743,-1.49698 -1.84132,-2.52658 -3.49251,-2.64563 l -31.3512,0 c -3.21315,0.44537 -4.44928,4.00441 -2.07844,5.986 0,0 10.24644,7.05144 10.24644,7.05144 l -17.22416,59.08827 c 0.72703,-4.92021 0.84489,-7.21082 0.84489,-10.49579 0,0 0,-11.26706 0,-11.26706 0,-21.12301 -10.71967,-44.54562 -41.65981,-50.36286 l -37.64439,0 c -3.07681,0.2153 -5.03747,3.41247 -2.4625,5.99595 l 9.69335,6.807 0,89.01343 -4.79163,3.40824 0,-40.95346 c -0.59625,-4.20593 -6.28397,-4.17757 -7.61903,-0.98091 l -12.94156,36.73273 -5.84558,0 0,-88.81445 c 0,0 7.79386,-5.10618 7.79386,-5.10618 2.78728,-2.42774 1.1692,-6.10235 -2.83734,-6.10235 0,0 -42.73682,0 -42.73682,0 -0.8417,0.29209 -0.89679,0.30155 -1.78745,0 0,0 -67.95164,0 -67.95164,0 -0.47965,-0.006 -0.83528,0.0501 -1.27753,0.29029 l 11.33239,-16.09006 c 1.35932,-2.47226 -0.36385,-4.9198 -3.44987,-5.10668 l -124.423227,0 c -0.974557,0.0566 -2.651524,0.19865 -3.661766,1.91194 0,0 -18.49842,38.60556 -18.49842,38.60556 -1.447189,3.90817 2.831019,5.8522 5.815145,4.30236 l 37.101493,-28.01267 61.021175,0 c 0,0 -99.036612,141.95848 -99.036612,141.95848 -1.396534,2.08368 -0.306046,4.89334 2.824282,5.31766 l 124.29871,0 c 1.97975,-0.1494 2.8749,-1.46067 3.26035,-2.13581 l 0,0 z M 73.089006,438.32399 159.93543,315.3169 c -0.26718,0.59166 0.11618,1.70226 0.80261,2.32157 l 8.23018,6.92992 0,89.24816 c 0,0 -31.76433,24.50744 -31.76433,24.50744 0,0 -64.114884,0 -64.114884,0 l 0,0 z M 329.45886,327.3834 c 15.94996,5.5324 19.64093,24.30085 20.30818,37.54076 l 0.0301,5.93529 C 349.4488,397.053 339.46601,408.3052 329.45892,411.2115 l 0,-83.8281 z m 70.66548,30.91103 4.88996,17.95445 -10.1307,0 c 0,0 5.24074,-17.95445 5.24074,-17.95445 z M 234.6577,374.76704 c -0.87368,-3.60251 -6.05162,-3.92116 -7.56134,-0.73104 l -12.9373,37.93537 -15.57724,0 0,-35.95672 7.26254,0 8.57108,10.61856 c 2.44528,2.73192 6.59194,1.39857 7.12947,-1.53531 l 0,-33.60002 c -0.72454,-4.32071 -5.69167,-3.71307 -7.07986,-1.91545 l -8.66573,11.26476 -7.2175,0 0,-35.37107 15.75633,0 c 0,0 13.02052,29.9951 13.02052,29.9951 1.74386,2.91497 7.13445,2.34369 7.42452,-1.60039 l 0,-33.38449 4.76829,3.19594 0,90.65727 -4.89378,3.64381 0,-43.21632 0,0 z"
         style="fill:#ffffff;fill-opacity:1;display:inline;enable-background:new"
         id="path2900" />
      <path
         inkscape:connector-curvature="0"
         d="m 134.27264,304.49582 -69.424335,-0.0433 -37.809164,28.51113 18.362963,-38.46652 124.673346,0 -103.966038,147.282 72.539858,0 34.14613,-26.3605 0,-92.33562 -9.11647,-7.62089 67.1516,0 0.0556,38.35772 -13.83115,-31.79885 -22.42576,0 0,42.28134 13.27662,0 9.62374,-12.50983 0,32.73326 -9.6689,-11.96624 -13.16871,0 -0.0634,42.80839 22.44137,0 c 0,0 13.64652,-39.92944 13.64652,-39.92944 l -0.0113,47.77666 -63.01273,0 -12.6334,28.578 -123.549212,0 c 0,0 102.762932,-147.29731 102.762932,-147.29731 l 0,5e-5 z m 109.15746,111.51627 0.006,-94.04965 -9.63165,-6.50031 42.32308,0 -9.09043,5.97214 -0.005,93.93364 12.61702,0 13.72084,-38.82621 0.0133,46.67344 -59.66638,0 9.71348,-7.20305 1.8e-4,0 z m 62.62208,-0.58564 0.004,-92.33264 -10.78616,-7.63168 36.64585,0 c 18.45016,2.73445 37.38632,16.67051 38.38581,45.15085 l 0.0301,14.75749 c -2.01257,31.40004 -16.23701,46.96677 -37.28785,47.84467 l -37.97133,0 10.97927,-7.78869 1.6e-4,0 z m 47.5969,-41.57863 0,-4.56776 c 0.12026,-15.92963 -3.94546,-42.72187 -28.14288,-46.20499 l 0,92.32763 c 19.56098,-2.15693 27.10765,-20.87432 28.14288,-41.55488 l 0,0 z m 14.95997,40.49955 26.42463,-90.72516 -11.99429,-8.21868 30.35263,-0.0595 c 0,0 28.68635,100.54001 28.68635,100.54001 l 14.73768,7.33109 c 0,0 -49.99794,0 -49.99794,0 l 10.52713,-8.25757 -5.08708,-27.52391 -24.70144,-0.0571 -7.96174,26.9954 13.3474,8.84323 -38.8554,0 14.52207,-8.86777 0,0 z m 31.61217,-70.17767 -10.36001,35.47572 20.11085,0 c 0,0 -9.75084,-35.47572 -9.75084,-35.47572 l 0,0 z m -310.368983,53.84062 0.01085,-9.40933 -9.754526,3.8325 c 0,0 -22.831518,43.30403 -22.831518,43.30403 l 32.575164,-37.7272 2.5e-5,0 z m 15.235973,-20.78043 -0.21176,-9.81286 -9.627772,3.09522 0.162606,9.80758 9.676926,-3.08994 z m 14.78872,-21.8565 c 0,0 22.89566,-43.37749 22.89566,-43.37749 l -32.64474,37.80534 0,9.40842 9.74908,-3.83627 0,0 z"
         style="fill:#ba0100;fill-opacity:1;display:inline;enable-background:new"
         id="path3843" />
    </g>
    <flowRoot
       xml:space="preserve"
       id="flowRoot3063"
       style="fill:black;stroke:none;stroke-opacity:1;stroke-width:1px;stroke-linejoin:miter;stroke-linecap:butt;fill-opacity:1;font-family:DejaVu Sans Light;font-style:normal;font-weight:normal;font-size:12px;line-height:125%;letter-spacing:0px;word-spacing:0px"><flowRegion
         id="flowRegion3065"><rect
           id="rect3067"
           width="209.10515"
           height="143.64615"
           x="-270.01837"
           y="115.42972" /></flowRegion><flowPara
         id="flowPara3069"></flowPara></flowRoot>    <text
       xml:space="preserve"
       style="font-size:12px;font-style:normal;font-variant:normal;font-weight:normal;font-stretch:normal;line-height:125%;letter-spacing:0px;word-spacing:0px;fill:#000000;fill-opacity:1;stroke:none;font-family:Serif;-inkscape-font-specification:Serif"
       x="126.37228"
       y="188.16193"
       id="text3071"
       sodipodi:linespacing="125%"><tspan
         sodipodi:role="line"
         id="tspan3073"
         x="126.37228"
         y="188.16193"
         style="font-size:64px;font-weight:bold;-inkscape-font-specification:Serif Bold">Open</tspan></text>
  </g>
</svg>
